<?xml version="1.0" encoding="UTF-8" standalone="no"?>
<svg
   xmlns:dc="http://purl.org/dc/elements/1.1/"
   xmlns:cc="http://creativecommons.org/ns#"
   xmlns:rdf="http://www.w3.org/1999/02/22-rdf-syntax-ns#"
   xmlns:svg="http://www.w3.org/2000/svg"
   xmlns="http://www.w3.org/2000/svg"
   xmlns:sodipodi="http://sodipodi.sourceforge.net/DTD/sodipodi-0.dtd"
   xmlns:inkscape="http://www.inkscape.org/namespaces/inkscape"
   viewBox="0 0 1139.8052 1162.0632"
   version="1.1"
   x="0px"
   y="0px"
   id="svg4164"
   inkscape:version="0.91 r13725"
   sodipodi:docname="loading.svg"
   width="1139.8052"
   height="1162.0632">
  <metadata
     id="metadata4178">
    <rdf:RDF>
      <cc:Work
         rdf:about="">
        <dc:format>image/svg+xml</dc:format>
        <dc:type
           rdf:resource="http://purl.org/dc/dcmitype/StillImage" />
        <dc:title></dc:title>
      </cc:Work>
    </rdf:RDF>
  </metadata>
  <defs
     id="defs4176" />
  <sodipodi:namedview
     pagecolor="#ffffff"
     bordercolor="#666666"
     borderopacity="1"
     objecttolerance="10"
     gridtolerance="10"
     guidetolerance="10"
     inkscape:pageopacity="0"
     inkscape:pageshadow="2"
     inkscape:window-width="1366"
     inkscape:window-height="715"
     id="namedview4174"
     showgrid="false"
     fit-margin-top="0"
     fit-margin-left="0"
     fit-margin-right="0"
     fit-margin-bottom="0"
     inkscape:zoom="0.16546729"
     inkscape:cx="-182.5119"
     inkscape:cy="448.93134"
     inkscape:window-x="-8"
     inkscape:window-y="-8"
     inkscape:window-maximized="1"
     inkscape:current-layer="svg4164" />
  <g
     transform="translate(2405.713,5.5972833)"
     id="g4166">
    <path
       style="fill:#000000"
       d="m -1777.5737,1010.7262 c -18.3536,-68.5781 -33.3622,-125.31301 -33.3522,-126.07756 0.011,-0.82457 3.9591,-1.73637 9.7056,-2.24132 25.4148,-2.23319 63.9905,-12.40427 91.3926,-24.09708 7.1252,-3.04045 13.2081,-5.27501 13.5174,-4.96571 0.3093,0.3093 15.6449,56.72952 34.0791,125.37829 24.7639,92.22028 33.1488,125.17438 32.1076,126.18858 -1.3568,1.3215 -108.8472,30.5023 -112.3586,30.5023 -1.227,0 -11.3016,-35.797 -35.0915,-124.6875 z m -347.0841,52.108 c -27.1563,-15.7478 -49.5139,-29.3441 -49.6837,-30.2139 -0.3626,-1.8576 127.6108,-223.80728 129.3856,-224.39887 0.6622,-0.22073 4.2345,2.06116 7.9385,5.07087 24.4074,19.83238 58.1661,39.1759 87.6721,50.23554 3.2656,1.22404 5.9375,2.6808 5.9375,3.23724 0,0.55644 -12.4351,22.55815 -27.6336,48.89267 -35.0396,60.71338 -69.8908,121.05185 -87.7617,151.94345 -7.6561,13.2344 -14.4961,24.0181 -15.2,23.9639 -0.7038,-0.054 -23.4985,-12.9832 -50.6547,-28.7309 z m -257.5688,-313.98297 c -2.9797,-11.17188 -9.7458,-36.34375 -15.0358,-55.9375 -7.1392,-26.4429 -9.2512,-35.97202 -8.1943,-36.97141 1.4663,-1.3865 244.8312,-66.81343 248.439,-66.79108 1.6052,0.01 2.1882,1.98291 2.8663,9.69999 2.1884,24.90551 15.7043,75.48429 25.1549,94.13416 3.6567,7.21621 3.8566,9.5276 0.9012,10.42153 -9.5566,2.89055 -245.727,65.75681 -247.0294,65.75681 -1.121,0 -3.4962,-6.79333 -7.1019,-20.3125 z m 865.9887,-210.5161 c -0.3367,-0.57553 -0.9989,-4.9839 -1.4715,-9.7964 -2.4593,-25.04434 -15.8896,-75.00167 -24.9921,-92.96448 -1.634,-3.22467 -3.1646,-6.91096 -3.4011,-8.19176 -0.3854,-2.08604 12.5966,-5.82085 124.5686,-35.83748 68.7493,-18.42982 125.379,-33.11446 125.8438,-32.63252 1.1057,1.14645 29.7824,108.21499 29.7824,111.19679 0,1.97582 -16.6674,6.7549 -122.8125,35.2143 -67.5469,18.11051 -123.7334,33.1824 -124.8589,33.49307 -1.1256,0.31068 -2.322,0.094 -2.6587,-0.48152 z m -735.2949,-144.91801 c -61.1875,-35.38202 -111.25,-64.79058 -111.25,-65.35238 0,-1.44464 58.5093,-102.65632 59.3271,-102.62632 1.6018,0.0587 223.1327,128.60462 223.4925,129.68412 0.2195,0.6584 -2.0635,4.22763 -5.0732,7.93164 -19.8249,24.39827 -36.9191,54.0928 -49.878,86.64393 -1.6223,4.07517 -3.4939,7.5535 -4.1591,7.72965 -0.6651,0.17615 -51.2718,-28.62863 -112.4593,-64.01064 z m 614.2731,-80.28555 c -24.0212,-19.06805 -51.3462,-34.78194 -81.1481,-46.66607 -5.1563,-2.05616 -9.8382,-4.18783 -10.4044,-4.73703 -0.794,-0.77024 124.201,-219.821733 127.9276,-224.190773 0.7908,-0.92714 97.225,53.76286 101.0797,57.32461 1.4474,1.33737 -8.6744,19.624933 -62.3423,112.636513 -35.2386,61.07195 -64.4683,111.47952 -64.9548,112.01682 -0.4866,0.5373 -5.0575,-2.33552 -10.1577,-6.38407 z m -338.0347,-40.53034 c -1.6467,-4.61044 -65.6134,-244.873743 -65.6134,-246.448653 0,-1.0974 1.9386,-2.41037 4.6875,-3.17469 36.4723,-10.14107 109.2155,-29.0778701 109.7284,-28.5649601 1.2539,1.25394 66.8849,247.8155431 66.3416,249.2313431 -0.2965,0.77266 -4.9476,1.79235 -10.3358,2.26597 -24.9233,2.19076 -64.4173,12.48531 -89.7967,23.40651 -12.1753,5.23924 -14.1584,5.67313 -15.0116,3.28448 z"
       id="path4168"
       inkscape:connector-curvature="0" />
  </g>
  <text
     x="3.3705222e-005"
     y="1156.011"
     font-size="5px"
     font-weight="bold"
     id="text4170"
     style="font-weight:bold;font-size:5px;font-family:'Helvetica Neue', Helvetica, Arial-Unicode, Arial, Sans-serif;fill:#000000">Created by Hector</text>
  <text
     x="3.3705222e-005"
     y="1161.011"
     font-size="5px"
     font-weight="bold"
     id="text4172"
     style="font-weight:bold;font-size:5px;font-family:'Helvetica Neue', Helvetica, Arial-Unicode, Arial, Sans-serif;fill:#000000">from the Noun Project</text>
</svg>
